PathFileType	4	(X/Y/Z)	/Users/niels/Desktop/University/Third Semester/Perception and Action/Exam/Gymnastics Motion Tracking/Code for Gym Tracking/Analyzed Data/Webcam_Backflip/id2_3_baseline_Sports2D/id2_3_baseline_Sports2D_px_person00.trc
DataRate	CameraRate	NumFrames	NumMarkers	Units	OrigDataRate	OrigDataStartFrame	OrigNumFrames
29.87551867219917	29.87551867219917	10	22	m	29.87551867219917	120	241
Frame#	Time	Hip			RHip			RKnee			RAnkle			RBigToe			RSmallToe			RHeel			LHip			LKnee			LAnkle			LBigToe			LSmallToe			LHeel			Neck			Head			Nose			RShoulder			RElbow			RWrist			LShoulder			LElbow			LWrist		
		X1	Y1	Z1	X2	Y2	Z2	X3	Y3	Z3	X4	Y4	Z4	X5	Y5	Z5	X6	Y6	Z6	X7	Y7	Z7	X8	Y8	Z8	X9	Y9	Z9	X10	Y10	Z10	X11	Y11	Z11	X12	Y12	Z12	X13	Y13	Z13	X14	Y14	Z14	X15	Y15	Z15	X16	Y16	Z16	X17	Y17	Z17	X18	Y18	Z18	X19	Y19	Z19	X20	Y20	Z20	X21	Y21	Z21	X22	Y22	Z22
120	4.016666666666667	0.710292601466921	-0.4940385808547831	0.0	0.7011379470845714	-0.4920802388046911	0.0	0.6898442051367484	-0.6147840421587069	0.0	0.6719909659434715	-0.7343194753465578	0.0	0.699209376174863	-0.7722908055138651	0.0	0.6859959059017313	-0.7719803718053997	0.0	0.6671510202902747	-0.7503724409179529	0.0	0.7242151469769219	-0.4932147770698786	0.0	0.7266309587904586	-0.6105528071308687	0.0	0.7103941131159193	-0.7225615900600137	0.0	0.7275491108537673	-0.760940504920222	0.0	0.7333586271133451	-0.7527802328372242	0.0	0.704573909542016	-0.7328224220978496	0.0	0.722563466809372	-0.34014909939063137	0.0	0.7442954224293311	-0.26280038846913395	0.0	0.7511511127200797	-0.30078819833232373	0.0	0.7095695335676092	-0.3368897777590197	0.0	0.7387382891471675	-0.2624555697880094	0.0	0.768882488381918	-0.20962084639600506	0.0	0.7362301905246496	-0.3397823496636456	0.0	0.7725043841054963	-0.2760510797764827	0.0	0.7999177706834382	-0.22558218718297335	0.0
121	4.050138888888889	0.7104787605562738	-0.5108005158520409	0.0	0.701004902369361	-0.5090014572937411	0.0	0.6894441489028414	-0.6294034610202976	0.0	0.6702601698822878	-0.7480699592325142	0.0	0.6961558766230421	-0.7831363136205935	0.0	0.6842589971017116	-0.7826258393668836	0.0	0.6659864761077062	-0.7644005672777338	0.0	0.7246862409240243	-0.5106312846644151	0.0	0.7214487821830012	-0.6277182699407948	0.0	0.707723091869007	-0.738547759425014	0.0	0.7231253747283103	-0.7744607501635444	0.0	0.7290909311134478	-0.7667477551447499	0.0	0.7018982494001211	-0.749510110500671	0.0	0.7216818018309121	-0.35656736476001183	0.0	0.741918939532102	-0.27808529715654623	0.0	0.7481532272758323	-0.3165743327049398	0.0	0.7081223569059379	-0.35364087027228547	0.0	0.7322791901717393	-0.2756156410932885	0.0	0.7588813740647943	-0.22006251451508024	0.0	0.7351683314657473	-0.35577077922774747	0.0	0.7661496789147316	-0.2869885645367016	0.0	0.7880305131042854	-0.23253763613909512	0.0
122	4.083611111111111	0.7101384200436149	-0.5294097757707359	0.0	0.7004736943061071	-0.5275604448226854	0.0	0.6902289604138353	-0.6456899756566429	0.0	0.668550778366686	-0.7638846020018851	0.0	0.6933406369982058	-0.7955510811698525	0.0	0.6829274925116882	-0.7951152557812151	0.0	0.6640254214990806	-0.7801976490928142	0.0	0.7244469898759728	-0.529552311054645	0.0	0.7179702176780451	-0.6459674405989542	0.0	0.7053570030891698	-0.7559227693256029	0.0	0.7200569843832496	-0.7883797984421669	0.0	0.725649524508396	-0.781115367384203	0.0	0.6987274681875177	-0.7679807274956695	0.0	0.720656970012723	-0.37501083046033096	0.0	0.7397291135501283	-0.2957493808417924	0.0	0.745731902592606	-0.33449861082225224	0.0	0.7068222372253657	-0.37302295054510537	0.0	0.7264211298233487	-0.29094258393070777	0.0	0.7499827740382448	-0.2334056739131524	0.0	0.7338118950263564	-0.3743823556857842	0.0	0.7598880614441399	-0.3001136835907504	0.0	0.7768168530983687	-0.2420991144322968	0.0
123	4.117083333333333	0.7093730464778132	-0.5484952767881651	0.0	0.6996991220224855	-0.5464872611517387	0.0	0.6922200462248133	-0.6626801386796782	0.0	0.6668397335422797	-0.780336446526455	0.0	0.6910922915828711	-0.8086067832534085	0.0	0.682079625535555	-0.8085676262553618	0.0	0.6613377925254	-0.7963314588830618	0.0	0.7235785325976277	-0.5485524065238714	0.0	0.7164759467686675	-0.6641337813729395	0.0	0.7030151671594618	-0.7735683624108416	0.0	0.7176253032295694	-0.8020446601797196	0.0	0.722520549260765	-0.7953095523576562	0.0	0.695153360201314	-0.7867272950517175	0.0	0.7195933336785502	-0.39442018765146036	0.0	0.7377758126612431	-0.3148598614756662	0.0	0.7439292701291182	-0.35369951339617034	0.0	0.7057505448024042	-0.3937437205878367	0.0	0.7210026507280757	-0.3080430390524951	0.0	0.7421873210386354	-0.2489306887032167	0.0	0.7323217881477497	-0.3945761188556357	0.0	0.7539812248592395	-0.3154472815989992	0.0	0.7670696984632766	-0.2543152887980095	0.0
124	4.150555555555556	0.7082681091045642	-0.5666807451978816	0.0	0.6986837893296372	-0.564510053134277	0.0	0.6953337714380923	-0.6792324743360868	0.0	0.6653286372904608	-0.7957042698899596	0.0	0.6898232326495741	-0.8211664017262245	0.0	0.681949425704492	-0.821798953868089	0.0	0.6584883059079211	-0.8111132099759453	0.0	0.7222663605327762	-0.5663303018362909	0.0	0.717099607623734	-0.6809693768401704	0.0	0.700542829912293	-0.7898503897249376	0.0	0.7151969052198401	-0.8146143700610801	0.0	0.7192881425741909	-0.808540110942807	0.0	0.6915071132479478	-0.8037600340896953	0.0	0.718700883302427	-0.41349457636204034	0.0	0.7364258346542363	-0.33413624086660254	0.0	0.7428631627087423	-0.3729922996483935	0.0	0.7050244274885	-0.4141415424351272	0.0	0.7162516582822122	-0.32606454045774863	0.0	0.7356431956562592	-0.2655121225720623	0.0	0.7309232910284922	-0.4148202951449415	0.0	0.7487264321157951	-0.3322618763091408	0.0	0.7594560961216552	-0.2684279572153469	0.0
125	4.184027777777778	0.7069735125708204	-0.5828054615285566	0.0	0.6973629459442122	-0.5804984845089897	0.0	0.6994282371442008	-0.6941671563745643	0.0	0.664322088949013	-0.8084653042350662	0.0	0.6897554038913437	-0.8320629247972907	0.0	0.6826523851823665	-0.8334827159210279	0.0	0.6561580260489629	-0.8230284421142501	0.0	0.7207977721072609	-0.5818909122744597	0.0	0.7197735598746076	-0.6953922783370847	0.0	0.6980795316776238	-0.8032211758952994	0.0	0.7126852761750115	-0.8252229761020577	0.0	0.7160393727509303	-0.8199351751594788	0.0	0.6882339835982607	-0.8173754094613052	0.0	0.718183327951516	-0.43084856283182316	0.0	0.7360442379422275	-0.3520754421515643	0.0	0.7426371661810507	-0.3909526420761455	0.0	0.7046441113634406	-0.4325396861244929	0.0	0.7124079581580528	-0.3436928920477725	0.0	0.7303010305153633	-0.28179431429254614	0.0	0.7298945544380991	-0.43343446927162266	0.0	0.7445197211955411	-0.3492168056960718	0.0	0.754385156047771	-0.28310719774868537	0.0
126	4.2175	0.7057066960009003	-0.5959312321127778	0.0	0.6957513089642953	-0.5934787352080296	0.0	0.7043884784853854	-0.7063789218691279	0.0	0.6639500187838377	-0.8175647478415449	0.0	0.6906629417791151	-0.8403034066904216	0.0	0.6838950922067557	-0.8423653560105048	0.0	0.6545948142186884	-0.8309999705698639	0.0	0.7195330935598997	-0.5944473109121109	0.0	0.7241778470229168	-0.7065831743647121	0.0	0.6959924288172755	-0.8126985606526598	0.0	0.7106227278601416	-0.8331263891859729	0.0	0.7133653329924319	-0.8286813823543436	0.0	0.6857021287848879	-0.8266210460509209	0.0	0.718101731628603	-0.44521826531821695	0.0	0.7366427432234516	-0.36723570115963483	0.0	0.7432289577472087	-0.40614066577865926	0.0	0.7044235978505702	-0.44754581038914226	0.0	0.7094701878015917	-0.3594295611540179	0.0	0.7258140944535835	-0.2964037945300195	0.0	0.7295095697382687	-0.44896185952740897	0.0	0.741790232005644	-0.3648169428991362	0.0	0.7520046734674116	-0.29688418567199726	0.0
127	4.250972222222222	0.7046613107364541	-0.6053126411393812	0.0	0.6940319178591018	-0.6026880696757376	0.0	0.7100977297560531	-0.7149152153217279	0.0	0.6640243600446498	-0.8224825491699609	0.0	0.6919016332530054	-0.8452424424359194	0.0	0.6850435390197644	-0.8475242183017504	0.0	0.6534913281642467	-0.8345661934171756	0.0	0.7187104547874003	-0.603319296475051	0.0	0.7297269069605808	-0.7139615821932039	0.0	0.6946660747176927	-0.8179152956222566	0.0	0.7097473520623311	-0.8377957218753427	0.0	0.7119626156200811	-0.8341227741896222	0.0	0.6841054965228923	-0.8312622654001895	0.0	0.7183430409768226	-0.45562815954733143	0.0	0.7378892849048561	-0.3785078908846296	0.0	0.7444526503677017	-0.417388318870817	0.0	0.7041729771378068	-0.4582237385087677	0.0	0.7073366092939246	-0.37184298667438026	0.0	0.7218717292613928	-0.30812501797345654	0.0	0.729802976157028	-0.46037604787862585	0.0	0.7407139844470181	-0.3775992881373851	0.0	0.7520707009299634	-0.3083830636856376	0.0
128	4.2844444444444445	0.7039490992785133	-0.6105193580643834	0.0	0.692516510392912	-0.6077364258544343	0.0	0.7163172875998224	-0.7191534492020466	0.0	0.6641821822314997	-0.8232074872572183	0.0	0.6927872356359226	-0.8466361619380575	0.0	0.6855422656916307	-0.8485938677321841	0.0	0.652367680004969	-0.8339205153555259	0.0	0.7182744802026839	-0.6080655768618809	0.0	0.7356722627179947	-0.7172388981249929	0.0	0.6942757826100575	-0.8189465313825541	0.0	0.7104016768899081	-0.8390055795115127	0.0	0.7121304145009124	-0.8358915883620331	0.0	0.683425135670028	-0.8315520068118304	0.0	0.7187301999563696	-0.4615781889159527	0.0	0.7393304671429238	-0.38530833812527254	0.0	0.746000043336944	-0.4240854123702401	0.0	0.7039056782827712	-0.46422403412356084	0.0	0.7059375102377574	-0.37985567157178995	0.0	0.7184752860532826	-0.3160670169335516	0.0	0.7304825361229521	-0.4671892608957826	0.0	0.7410127600484463	-0.3863679760649933	0.0	0.7539172854335816	-0.31652351857779376	0.0
129	4.317916666666667	0.7035900641201094	-0.6115972151266591	0.0	0.6914922440413898	-0.6087173710486518	0.0	0.7226521613267102	-0.7190314658542054	0.0	0.6641739378889453	-0.820143162462926	0.0	0.6930363814273782	-0.8445181256411904	0.0	0.6853226065387922	-0.8457394356396236	0.0	0.6510319676482741	-0.8297226233602347	0.0	0.7179797616934593	-0.6087204795071859	0.0	0.7412824790223321	-0.7165393158821599	0.0	0.694724276382576	-0.8161730704161982	0.0	0.7122887926388085	-0.8368504714961671	0.0	0.7135708585798853	-0.833994517316414	0.0	0.6834737767427009	-0.8280375905555543	0.0	0.7191337508014743	-0.46315637381521085	0.0	0.7405599705008946	-0.3876408428798265	0.0	0.7475269090417218	-0.4262688517728031	0.0	0.7037706066595956	-0.4657834391524179	0.0	0.7051755514971337	-0.3830716584052229	0.0	0.715841273969353	-0.3198444389939475	0.0	0.7311877311509458	-0.469478870702728	0.0	0.7421571931978558	-0.3905969237171563	0.0	0.7567766567265615	-0.3208185013942885	0.0
